# xmcd CD database file
#
# Track frame offsets:
#	150
#	18307
#	42380
#	62277
#	79942
#	98977
#	114660
#	135837
#	153282
#	170625
#
# Disc length: 2533 seconds
#
# Revision: 2
# Processed by: cddbd v1.5.2PL0 Copyright (c) Steve Scherf et al.
# Submitted via: CDex 1.51
#
DISCID=7509e30a
DTITLE=Louis Myers - I'm A Southern Man
DYEAR=1978
DGENRE=Blues
TTITLE0=I'm A Southern Man
TTITLE1=Short Haired Woman
TTITLE2=Woman's Lib
TTITLE3=Just Woke Up
TTITLE4=Woman Trouble
TTITLE5=Hello Stranger
TTITLE6=Southbound Blues
TTITLE7=All My Love In Vain
TTITLE8=Kind Hearted Woman
TTITLE9=Old Black Mattie
EXTD=YEAR: 1978
EXTT0=
EXTT1=
EXTT2=
EXTT3=
EXTT4=
EXTT5=
EXTT6=
EXTT7=
EXTT8=
EXTT9=
PLAYORDER=
